# xmcd
#
# Track frame offsets: 
#        150
#        14596
#        28293
#        41425
#        55583
#        69687
#        84356
#        98360
#        111331
#        124546
#        137860
#        151876
#        165006
#        178185
#        191795
#        205226
#        218722
#        232062
#        246115
#        260064
#        274663
#        288930
#        302283
#        316711
#
# Disc length: 4382 seconds
#
# Revision: 2
# Processed by: cddbd v1.5.2PL0 Copyright (c) Steve Scherf et al.
# Submitted via: ExactAudioCopy v1.2
#
DISCID=49111c18
DTITLE=The Carter Family - Carter Family New York City 1935 - 1936 Dis
DTITLE=c B
DYEAR=2003
DGENRE=Country
TTITLE0=Sea Of Galilee
TTITLE1=Don't Forget This Song
TTITLE2=My Clinch Mountain Home
TTITLE3=Storms Are On The Ocean, The
TTITLE4=Will You Miss Me When I'm Gone
TTITLE5=Broken Hearted Lover
TTITLE6=Little Darling Pal Of Mine
TTITLE7=Homestead On The Farm, The
TTITLE8=Cannon Ball Blues
TTITLE9=Meet Me By The Moonlight Alone
TTITLE10=On The Rock Where Moses Stood
TTITLE11=Lulu Walls
TTITLE12=I'm Thinking Tonight Of My Blue Eyes
TTITLE13=Worried Man Blues
TTITLE14=My Dixie Darling
TTITLE15=Give Me Your Love And I'll Give You Mine
TTITLE16=Are You Lonesome Tonight?
TTITLE17=Last Move For Me, The
TTITLE18=Wayworn Traveller, The
TTITLE19=Just Another Broken Heart
TTITLE20=When Silver Threads Are Gold Again
TTITLE21=There's No One Like Mother To Me
TTITLE22=In A Little Village Churchyard
TTITLE23=Jealous Hearted Me
EXTD=
EXTT0=
EXTT1=
EXTT2=
EXTT3=
EXTT4=
EXTT5=
EXTT6=
EXTT7=
EXTT8=
EXTT9=
EXTT10=
EXTT11=
EXTT12=
EXTT13=
EXTT14=
EXTT15=
EXTT16=
EXTT17=
EXTT18=
EXTT19=
EXTT20=
EXTT21=
EXTT22=
EXTT23=
PLAYORDER=
